<svg xmlns="http://www.w3.org/2000/svg" fill="none" viewBox="0 0 24 24" stroke="currentColor" width="24" height="24">
  <path stroke-linecap="round" stroke-linejoin="round" stroke-width="2" d="M12 9a3 3 0 100 6 3 3 0 000-6zm8.704 2.295l1.387-2.404a.75.75 0 00-.156-.927l-2.25-2.25a.75.75 0 00-.927-.156l-2.404 1.387a7.966 7.966 0 00-1.93-.689l-.348-2.692A.75.75 0 0012.75 3h-3a.75.75 0 00-.75.75l-.348 2.692a7.966 7.966 0 00-1.93.689L4.32 5.744a.75.75 0 00-.927.156l-2.25 2.25a.75.75 0 00-.156.927l1.387 2.404a7.98 7.98 0 000 3.41l-1.387 2.404a.75.75 0 00.156.927l2.25 2.25a.75.75 0 00.927.156l2.404-1.387c.59.273 1.214.5 1.93.689l.348 2.692a.75.75 0 00.75.75h3a.75.75 0 00.75-.75l.348-2.692a7.966 7.966 0 001.93-.689l2.404 1.387a.75.75 0 00.927-.156l2.25-2.25a.75.75 0 00.156-.927l-1.387-2.404a7.98 7.98 0 000-3.41z"/>
</svg>
